<svg width="564" height="590" viewBox="0 0 564 590" fill="none" xmlns="http://www.w3.org/2000/svg">
<path d="M373.612 64.9386L118.805 12.5039C98.3176 8.28787 78.2907 21.476 74.074 41.9603L27.1582 269.872C22.9415 290.357 36.1318 310.38 56.6196 314.596L311.426 367.031C331.914 371.247 351.941 358.059 356.158 337.574L403.073 109.663C407.29 89.1782 394.1 69.1546 373.612 64.9386Z" fill="#AED7FF"/>
<path d="M490.045 298.896L275.564 182.801C257.17 172.844 234.185 179.682 224.227 198.073L120.537 389.572C110.578 407.964 117.417 430.945 135.812 440.901L350.292 556.997C368.687 566.953 391.671 560.116 401.63 541.724L505.32 350.225C515.278 331.833 508.439 308.853 490.045 298.896Z" fill="#8FC2FF"/>
<path d="M426.251 349.488C427.869 361.462 423.372 371.955 416.202 372.928C409.032 373.902 401.902 364.978 400.285 353.004C398.667 341.03 403.164 330.537 410.334 329.564C417.504 328.591 424.634 337.514 426.251 349.488Z" fill="#FFFEFD" stroke="#1C191B" stroke-width="3" stroke-miterlimit="10"/>
<path d="M457.489 403.969C458.503 410.069 452.539 416.142 444.169 417.526C435.8 418.91 428.197 415.093 427.183 408.993C426.168 402.893 432.132 396.82 440.502 395.436C448.872 394.052 456.474 397.869 457.489 403.969Z" fill="#FFFEFD" stroke="#1C191B" stroke-width="3" stroke-miterlimit="10"/>
<path d="M475.206 376.635C486.842 372.65 494.371 363.859 492.021 357.002C489.672 350.144 478.333 347.816 466.697 351.802C455.06 355.788 447.532 364.578 449.881 371.435C452.231 378.293 463.569 380.621 475.206 376.635Z" fill="#FFFEFD" stroke="#1C191B" stroke-width="3" stroke-miterlimit="10"/>
<path d="M485.875 318.595C495.327 302.227 495.491 284.63 486.242 279.291C476.993 273.952 461.833 282.892 452.381 299.26C442.93 315.628 442.766 333.225 452.015 338.564C461.264 343.903 476.424 334.962 485.875 318.595Z" fill="#FFFEFD" stroke="#1C191B" stroke-width="3" stroke-miterlimit="10"/>
<path d="M401.033 429.22L483.931 278.146" stroke="#1C191B" stroke-width="3" stroke-miterlimit="10"/>
<path d="M410.732 329.366L419.63 395.335" stroke="#1C191B" stroke-width="3" stroke-miterlimit="10"/>
<path d="M410.535 411.9L457.492 403.97" stroke="#1C191B" stroke-width="3" stroke-miterlimit="10"/>
<path d="M429.27 377.769L492.096 357.399" stroke="#1C191B" stroke-width="3" stroke-miterlimit="10"/>
<path d="M455.457 330.042L480.841 325.984" stroke="#1C191B" stroke-width="3" stroke-miterlimit="10"/>
<path d="M463.779 314.339L489.911 310.165" stroke="#1C191B" stroke-width="3" stroke-miterlimit="10"/>
<path d="M473.266 297.685L493.077 294.525" stroke="#1C191B" stroke-width="3" stroke-miterlimit="10"/>
<path d="M40.341 430.282C36.9273 428.233 35.378 427.725 25.2395 425.251C9.06852 421.31 2.54255 402.003 9.61692 389.494C16.6844 376.986 33.8973 372.209 46.7779 377.178C59.6585 382.154 68.2683 401.18 68.3163 416.273C68.3643 431.365 70.5374 428.376 78.4206 432.18C86.3039 435.984 96.6412 448.493 89.8411 463.311C83.0409 478.129 79.5037 480.144 84.9466 483.351C90.3826 486.559 91.1984 493.9 84.405 500.699C77.6049 507.498 61.8795 507.018 56.937 492.919C51.9946 478.821 48.5054 479.801 43.0694 471.083C37.6333 462.365 39.8064 454.75 43.0694 447.684C46.3324 440.617 47.7239 434.709 40.3479 430.282H40.341Z" fill="#FFFEFD" stroke="#1C191B" stroke-width="3" stroke-miterlimit="10"/>
<path d="M86.0292 511.767C86.0292 511.767 66.4513 492.282 61.5568 471.09C58.1704 456.436 64.2234 432.05 46.7774 416.279C29.3314 400.515 19.9538 395.21 18.3223 380.118" stroke="#1C191B" stroke-width="3" stroke-miterlimit="10"/>
<path d="M19.632 402.462C20.2146 406.06 19.0698 409.234 17.075 409.556C15.0802 409.878 12.9963 407.225 12.4136 403.627C11.831 400.029 12.9757 396.855 14.9705 396.533C16.9653 396.211 19.0493 398.864 19.632 402.462Z" stroke="#1C191B" stroke-width="3" stroke-miterlimit="10"/>
<path d="M40.5446 502.582C40.5446 502.582 36.4659 508.189 41.3604 514.405C46.2548 520.622 55.228 514.995 60.3282 509.751C65.4283 504.508 69.3014 495.399 68.0812 492.918C66.8541 490.437 62.7754 492.069 62.7754 492.069C62.7754 492.069 65.4283 484.934 61.1439 480.444C56.8595 475.955 46.8649 478.189 46.4605 486.558C46.4605 486.558 37.2816 473.508 29.1241 481.87C20.9667 490.232 26.0668 510.636 40.5446 502.576V502.582Z" fill="#00805E" stroke="#1C191B" stroke-width="3" stroke-miterlimit="10"/>
<path d="M49.5859 496.838L79.7685 515.974" stroke="#1C191B" stroke-width="3" stroke-miterlimit="10"/>
<path d="M29.6401 447.268C31.2721 442.469 28.7043 437.257 23.9049 435.625C19.1054 433.993 13.8917 436.56 12.2597 441.359C10.6277 446.158 13.1954 451.371 17.9949 453.002C22.7943 454.634 28.0081 452.067 29.6401 447.268Z" fill="#FFFEFD" stroke="#1C191B" stroke-width="3" stroke-miterlimit="10"/>
<path d="M33.2028 465.36C33.2028 466.484 32.2911 467.402 31.16 467.402C30.0289 467.402 29.1172 466.491 29.1172 465.36C29.1172 464.229 30.0289 463.317 31.16 463.317C32.2911 463.317 33.2028 464.229 33.2028 465.36Z" fill="#FFFEFD" stroke="#1C191B" stroke-width="3" stroke-miterlimit="10"/>
<path d="M11.6518 478.533C11.6518 481.199 9.49251 483.358 6.82591 483.358C4.15931 483.358 2 481.199 2 478.533C2 475.867 4.15931 473.708 6.82591 473.708C9.49251 473.708 11.6518 475.867 11.6518 478.533Z" fill="#FFFEFD" stroke="#1C191B" stroke-width="3" stroke-miterlimit="10"/>
<path d="M500.752 411.256H413.762V498.231H500.752V411.256Z" fill="white" stroke="#B5733C" stroke-width="3" stroke-linecap="round" stroke-linejoin="round"/>
<path d="M160.84 413.635H93.5859V516.69H160.84V413.635Z" fill="white" stroke="#B5733C" stroke-width="3" stroke-linecap="round" stroke-linejoin="round"/>
<path d="M146.308 513.125H63.7051V576.708H146.308V513.125Z" fill="#B5733C" stroke="white" stroke-width="3" stroke-linecap="round" stroke-linejoin="round"/>
<path d="M389.578 332.319H160.84V474.112H389.578V332.319Z" fill="#B5733C" stroke="white" stroke-width="3" stroke-linecap="round" stroke-linejoin="round"/>
<path d="M290.231 474.112H127.945V577.901H290.231V474.112Z" fill="#CC8F62" stroke="white" stroke-width="3" stroke-linecap="round" stroke-linejoin="round"/>
<path d="M446.687 473.859H282.941V578.134H446.687V473.859Z" fill="#CC8F62" stroke="white" stroke-width="3" stroke-linecap="round" stroke-linejoin="round"/>
<path d="M537.302 498.23H442.271V577.893H537.302V498.23Z" fill="#B5733C" stroke="white" stroke-width="3" stroke-linecap="round" stroke-linejoin="round"/>
<path d="M413.766 382.751H240.52V474.113H413.766V382.751Z" fill="#CC8F62" stroke="white" stroke-width="3" stroke-linecap="round" stroke-linejoin="round"/>
<path d="M108.934 425.326H127.209" stroke="#B5733C" stroke-width="3" stroke-linecap="round" stroke-linejoin="round"/>
<path d="M108.934 431.906H140" stroke="#B5733C" stroke-width="3" stroke-linecap="round" stroke-linejoin="round"/>
<path d="M145.486 491.652H163.762" stroke="white" stroke-width="3" stroke-linecap="round" stroke-linejoin="round"/>
<path d="M145.486 498.23H176.553" stroke="white" stroke-width="3" stroke-linecap="round" stroke-linejoin="round"/>
<path d="M73.8496 517.229H92.1251" stroke="white" stroke-width="3" stroke-linecap="round" stroke-linejoin="round"/>
<path d="M73.8496 523.811H104.917" stroke="white" stroke-width="3" stroke-linecap="round" stroke-linejoin="round"/>
<path d="M256.598 397.369H274.873" stroke="white" stroke-width="3" stroke-linecap="round" stroke-linejoin="round"/>
<path d="M256.598 403.949H287.665" stroke="white" stroke-width="3" stroke-linecap="round" stroke-linejoin="round"/>
<path d="M294.611 487.265H312.887" stroke="white" stroke-width="3" stroke-linecap="round" stroke-linejoin="round"/>
<path d="M294.611 493.845H325.678" stroke="white" stroke-width="3" stroke-linecap="round" stroke-linejoin="round"/>
<path d="M34.0625 577.353H563.351" stroke="black" stroke-width="3" stroke-miterlimit="10"/>
<path d="M143.482 589.004H207.919V559.532H170.216C170.216 559.532 169.455 570.361 166.446 572.212C162.772 574.474 145.874 578.168 143.139 581.807C141.185 584.412 143.482 589.004 143.482 589.004Z" fill="#FBBC05"/>
<path d="M345.02 578.038H359.998L402.609 550.286L386.513 525.592L354.925 546.174C354.925 546.174 358.524 554.625 357.009 557.819C355.165 561.719 344.286 568.353 343.985 572.897C343.765 576.146 345.013 578.038 345.013 578.038H345.02Z" fill="#FBBC05"/>
<path d="M288.945 112.269C338.623 112.269 378.951 152.59 378.951 202.26V276.261C378.951 287.913 369.491 297.371 357.838 297.371H220.059C208.405 297.371 198.945 287.913 198.945 276.261V202.26C198.945 152.59 239.273 112.269 288.952 112.269H288.945Z" fill="#4285F4"/>
<path d="M254.533 297.716C254.533 297.716 260.6 397.426 263.979 424.739C268.134 458.35 342.277 530.062 342.277 530.062L375.867 507.444C375.867 507.444 344.718 435.712 346.925 400.503C348.776 370.929 355.987 297.716 355.987 297.716H254.533V297.716Z" fill="white" stroke="black" stroke-width="3" stroke-miterlimit="10"/>
<path d="M272.951 97.6846H295.175V115.813C295.175 121.947 290.198 126.923 284.063 126.923C277.928 126.923 272.951 121.947 272.951 115.813V97.6846V97.6846Z" fill="white" stroke="black" stroke-width="3" stroke-linecap="round" stroke-linejoin="round"/>
<path d="M231.337 39.3998L309.575 43.7596L308.111 70.0171C306.908 91.6008 288.402 108.156 266.808 106.953C245.221 105.75 228.663 87.2475 229.866 65.657L231.33 39.3994L231.337 39.3998Z" fill="white" stroke="black" stroke-width="3" stroke-linecap="round" stroke-linejoin="round"/>
<path d="M265.349 41.8936C265.349 41.8936 261.257 46.2321 265.939 52.0784C270.614 57.9248 279.971 60.2619 282.316 60.2619C284.66 60.2619 285.825 54.4156 289.335 54.4156C292.845 54.4156 296.355 55.5876 296.355 61.434C296.355 67.2803 294.017 76.6358 298.692 77.8079C303.367 78.9799 307.919 78.5892 307.987 71.7696C308.049 64.9431 309.585 43.7989 309.585 43.7989L265.356 41.9004" fill="black"/>
<path d="M228.779 40.2211C229.828 17.3154 249.248 -0.401854 272.151 0.646789C295.06 1.69543 312.781 21.1125 311.732 44.0113L228.779 40.2211Z" fill="#4285F4"/>
<path d="M233.152 23.4561H197.355L197.582 24.0592C200.762 32.5991 208.577 38.5551 217.66 39.3433L229.691 40.392C229.691 40.392 228.45 35.7656 233.166 23.4629L233.152 23.4561Z" fill="#4285F4"/>
<path d="M218.2 297.716C218.2 297.716 187.832 379.681 182.554 406.692C176.055 439.927 167.473 538.972 167.473 538.972H214.087C214.087 538.972 255.889 442.209 268.927 409.434C279.881 381.895 355.985 297.716 355.985 297.716H218.2Z" fill="white" stroke="black" stroke-width="3" stroke-miterlimit="10"/>
<path d="M203.121 538.971H176.387V559.532H203.121V538.971Z" fill="white" stroke="black" stroke-width="3" stroke-miterlimit="10"/>
<path d="M370.826 511.41L348.428 526.004L359.655 543.231L382.054 528.637L370.826 511.41Z" fill="white" stroke="black" stroke-width="3" stroke-miterlimit="10"/>
<path d="M80.0508 172.166L80.0919 287.777L232.451 287.709L232.232 172.166H80.0508Z" fill="#D68B54" stroke="white" stroke-width="3" stroke-linecap="round" stroke-linejoin="round"/>
<path d="M189.73 208.135H179.057L170.536 200.24L160.939 208.135V172.166L189.73 171.289V208.135Z" fill="#CC8956" stroke="white" stroke-width="3" stroke-linecap="round" stroke-linejoin="round"/>
<path d="M140.753 252.796L90.0461 254.68L89.2715 220.486L139.978 218.602L140.753 252.796Z" fill="white"/>
<path d="M95.2969 230.973L115.848 229.41" stroke="#B5733C" stroke-width="3" stroke-linecap="round" stroke-linejoin="round"/>
<path d="M95.7363 240.438L130.676 237.778" stroke="#B5733C" stroke-width="3" stroke-linecap="round" stroke-linejoin="round"/>
<path d="M231.546 173.481H219.893V286.646H231.546V173.481Z" fill="#BA7749"/>
<path d="M156.164 292.23C166.575 292.23 175.015 283.792 175.015 273.382C175.015 262.973 166.575 254.534 156.164 254.534C145.753 254.534 137.312 262.973 137.312 273.382C137.312 283.792 145.753 292.23 156.164 292.23Z" fill="white" stroke="black" stroke-width="3" stroke-linecap="round" stroke-linejoin="round"/>
<path d="M340.219 160.91C340.219 160.91 373.76 237.399 303.524 267.214C257.314 286.83 219.249 288.79 198.608 287.837C189.23 287.405 181.861 279.667 181.861 270.277C181.861 262.999 186.345 256.474 193.152 253.869C211.098 246.995 244.818 232.992 251.782 222.321C261.379 207.626 255.895 195.591 267.686 170.519" fill="#1E5DBA"/>
<path d="M340.219 160.91C340.219 160.91 373.76 237.399 303.524 267.214C257.314 286.83 219.249 288.79 198.608 287.837C189.23 287.405 181.861 279.667 181.861 270.277C181.861 262.999 186.345 256.474 193.152 253.869C211.098 246.995 244.818 232.992 251.782 222.321C261.379 207.626 255.895 195.591 267.686 170.519" stroke="black" stroke-width="3" stroke-linecap="round" stroke-linejoin="round"/>
<path d="M191.808 581.807C195.594 581.807 198.663 578.739 198.663 574.953C198.663 571.168 195.594 568.1 191.808 568.1C188.022 568.1 184.953 571.168 184.953 574.953C184.953 578.739 188.022 581.807 191.808 581.807Z" fill="white"/>
<path d="M383.062 551.651C386.848 551.651 389.917 548.583 389.917 544.797C389.917 541.012 386.848 537.943 383.062 537.943C379.276 537.943 376.207 541.012 376.207 544.797C376.207 548.583 379.276 551.651 383.062 551.651Z" fill="white"/>
<path d="M372.353 95.9224C372.202 93.8799 374.471 89.514 378.502 89.8841C382.532 90.2542 382.251 92.5503 382.251 92.5503C382.251 92.5503 382.471 85.4565 387.262 83.8664C392.054 82.2763 395.255 86.9232 395.255 86.9232C395.255 86.9232 393.987 73.8872 403.31 71.9886C412.633 70.0901 418.617 79.2058 417.089 87.9239C417.089 87.9239 427.076 86.6696 427.488 94.8326C427.899 103.002 378.221 100.021 378.221 100.021C378.221 100.021 372.641 99.8428 372.353 95.9224V95.9224Z" fill="#FFFEFD" stroke="#1C191B" stroke-width="3" stroke-miterlimit="10"/>
<path d="M33.1357 107.122C33.1357 107.122 18.1711 108.204 17.8147 103.263C17.4514 98.3143 24.3269 98.801 24.3269 98.801C24.3269 98.801 15.155 92.4063 19.6244 81.913C24.087 71.4197 37.2418 74.552 41.8278 78.5341C41.8278 78.5341 32.5392 61.8791 45.4472 53.0788C58.3552 44.2784 80.3187 49.1035 83.095 73.3457C83.095 73.3457 85.028 67.4376 91.3004 67.794C97.5727 68.1573 96.1263 77.2867 96.1263 77.2867C96.1263 77.2867 100.952 63.2088 116.52 65.0182C132.088 66.8276 131.299 90.1103 126.261 98.9175C121.222 107.725 102.645 104.826 86.7144 105.189C70.7902 105.552 33.1425 107.122 33.1425 107.122H33.1357Z" fill="#FFFEFD" stroke="#1C191B" stroke-width="3" stroke-miterlimit="10"/>
<path d="M296.693 60.8101C296.693 56.7869 293.43 53.5244 289.406 53.5244C285.382 53.5244 282.928 58.4044 282.928 62.4276C282.928 66.4508 285.382 68.0958 289.406 68.0958C293.43 68.0958 296.693 64.8333 296.693 60.8101Z" fill="white" stroke="black" stroke-width="3" stroke-linecap="round" stroke-linejoin="round"/>
<path d="M291.448 59.5967C291.448 59.5967 287.191 59.5967 285.593 61.1936C283.996 62.7906 283.256 64.0174 283.256 64.0174" fill="white"/>
<path d="M291.448 59.5967C291.448 59.5967 287.191 59.5967 285.593 61.1936C283.996 62.7906 283.256 64.0174 283.256 64.0174" stroke="black" stroke-width="3" stroke-linecap="round" stroke-linejoin="round"/>
<path d="M526.262 126.717H394.989C392.528 126.717 390.533 128.711 390.533 131.172V135.798C390.533 138.259 392.528 140.253 394.989 140.253H526.262C528.723 140.253 530.718 138.259 530.718 135.798V131.172C530.718 128.711 528.723 126.717 526.262 126.717Z" fill="#FFFEFD" stroke="#1C191B" stroke-width="3" stroke-miterlimit="10"/>
<path d="M402.187 135.538C403.323 135.538 404.244 134.618 404.244 133.482C404.244 132.346 403.323 131.426 402.187 131.426C401.052 131.426 400.131 132.346 400.131 133.482C400.131 134.618 401.052 135.538 402.187 135.538Z" fill="#1C191B"/>
<path d="M410.758 135.538C411.893 135.538 412.814 134.618 412.814 133.482C412.814 132.346 411.893 131.426 410.758 131.426C409.622 131.426 408.701 132.346 408.701 133.482C408.701 134.618 409.622 135.538 410.758 135.538Z" fill="#1C191B"/>
<path d="M419.326 135.538C420.462 135.538 421.383 134.618 421.383 133.482C421.383 132.346 420.462 131.426 419.326 131.426C418.19 131.426 417.27 132.346 417.27 133.482C417.27 134.618 418.19 135.538 419.326 135.538Z" fill="#1C191B"/>
<path d="M526.07 140.102H395.181C392.614 140.102 390.533 142.182 390.533 144.748V216.33C390.533 218.897 392.614 220.977 395.181 220.977H526.07C528.637 220.977 530.718 218.897 530.718 216.33V144.748C530.718 142.182 528.637 140.102 526.07 140.102Z" fill="white" stroke="#1C191B" stroke-width="3" stroke-miterlimit="10"/>
<path d="M405.613 196.305H431.676" stroke="#FBBC05" stroke-width="7" stroke-miterlimit="10"/>
<path d="M405.613 203.843H449.828" stroke="#FBBC05" stroke-width="7" stroke-miterlimit="10"/>
<path d="M405.613 188.764H458.054" stroke="#FBBC05" stroke-width="7" stroke-miterlimit="10"/>
<path d="M405.613 181.568V206.928" stroke="black" stroke-width="3" stroke-linecap="round" stroke-linejoin="round"/>
<path d="M467.309 181.91V207.269" stroke="black" stroke-width="3" stroke-linecap="round" stroke-linejoin="round"/>
<path d="M405.113 151.37H430.477" stroke="black" stroke-width="3" stroke-linecap="round" stroke-linejoin="round"/>
<path d="M405.113 160.966H464.409" stroke="black" stroke-width="3" stroke-linecap="round" stroke-linejoin="round"/>
<path d="M478.23 198.703C479.15 198.703 479.896 197.957 479.896 197.038C479.896 196.118 479.15 195.372 478.23 195.372C477.31 195.372 476.564 196.118 476.564 197.038C476.564 197.957 477.31 198.703 478.23 198.703Z" fill="#00805E"/>
<path d="M494.777 192.364C495.697 192.364 496.443 191.619 496.443 190.699C496.443 189.779 495.697 189.033 494.777 189.033C493.857 189.033 493.111 189.779 493.111 190.699C493.111 191.619 493.857 192.364 494.777 192.364Z" fill="#00805E"/>
<path d="M512.601 188.251C513.521 188.251 514.267 187.505 514.267 186.585C514.267 185.666 513.521 184.92 512.601 184.92C511.681 184.92 510.936 185.666 510.936 186.585C510.936 187.505 511.681 188.251 512.601 188.251Z" fill="#00805E"/>
<path d="M468.336 202.815L478.228 197.037L487.53 199.388L494.776 190.697L505.195 195.372L511.913 187.271" stroke="#00805E" stroke-width="3" stroke-miterlimit="10"/>
<path d="M496.273 213.021L500.051 231.26L503.505 226.805L510.909 235.345L517.024 228.806L509.791 222.692L514.508 216.352L496.273 213.021Z" fill="#CA3300" stroke="#1C191B" stroke-width="3" stroke-miterlimit="10"/>
</svg>
