<svg width="23" height="23" viewBox="0 0 23 23" fill="none" xmlns="http://www.w3.org/2000/svg">
    <path
        d="M16.5127 0H6.12885C2.74935 0 0 2.73216 0 6.09055V16.4096C0 19.7678 2.74935 22.5 6.12885 22.5H16.5128C19.8922 22.5 22.6415 19.7678 22.6415 16.4096V6.09055C22.6415 2.73216 19.8922 0 16.5127 0V0ZM11.3208 17.4022C7.90705 17.4022 5.12989 14.6424 5.12989 11.25C5.12989 7.85763 7.90705 5.09783 11.3208 5.09783C14.7345 5.09783 17.5116 7.85763 17.5116 11.25C17.5116 14.6424 14.7345 17.4022 11.3208 17.4022ZM17.6597 6.54871C16.6509 6.54871 15.8303 5.73332 15.8303 4.73082C15.8303 3.72831 16.6509 2.91275 17.6597 2.91275C18.6685 2.91275 19.4892 3.72831 19.4892 4.73082C19.4892 5.73332 18.6685 6.54871 17.6597 6.54871Z"
        fill="white" />
    <path
        d="M11.3215 6.41699C8.6399 6.41699 6.45801 8.58508 6.45801 11.2501C6.45801 13.915 8.6399 16.0832 11.3215 16.0832C14.0033 16.0832 16.1851 13.915 16.1851 11.2501C16.1851 8.58508 14.0033 6.41699 11.3215 6.41699Z"
        fill="white" />
    <path
        d="M17.6582 4.23242C17.3815 4.23242 17.1562 4.45627 17.1562 4.73127C17.1562 5.00627 17.3815 5.23012 17.6582 5.23012C17.9351 5.23012 18.1604 5.00644 18.1604 4.73127C18.1604 4.4561 17.9351 4.23242 17.6582 4.23242Z"
        fill="white" />
</svg>