<svg width="110" height="25" viewBox="0 0 110 25" fill="none" xmlns="http://www.w3.org/2000/svg">
    <path
        d="M73.6317 23.5407C73.338 23.5407 73.0944 23.4879 72.9022 23.3835C72.71 23.279 72.5547 23.1464 72.4354 22.988V23.3166C72.4354 23.3635 72.421 23.4011 72.3924 23.4281C72.3637 23.4562 72.3255 23.4703 72.2789 23.4703H72.1584C72.1106 23.4703 72.0724 23.4562 72.0449 23.4281C72.0163 23.3999 72.002 23.3623 72.002 23.3166V18.6576C72.002 18.6107 72.0163 18.5731 72.0449 18.5462C72.0736 18.518 72.1118 18.5039 72.1584 18.5039H72.2789C72.3267 18.5039 72.3649 18.518 72.3924 18.5462C72.421 18.5743 72.4354 18.6119 72.4354 18.6576V20.3158C72.5535 20.1621 72.7088 20.0318 72.9022 19.9239C73.0944 19.8171 73.338 19.7631 73.6317 19.7631C73.9254 19.7631 74.1462 19.8124 74.3361 19.9098C74.5259 20.0072 74.6799 20.1386 74.7993 20.3018C74.9175 20.4649 75.0059 20.6468 75.0632 20.8475C75.1205 21.0481 75.1515 21.2511 75.1563 21.4565C75.1611 21.5269 75.1635 21.5915 75.1635 21.6525C75.1635 21.7135 75.1611 21.7781 75.1563 21.8485C75.1515 22.0538 75.1205 22.2569 75.0632 22.4575C75.0059 22.6582 74.9187 22.8401 74.7993 23.0032C74.6811 23.1664 74.5259 23.2966 74.3361 23.3952C74.1462 23.4926 73.911 23.5419 73.6317 23.5419V23.5407ZM73.5887 23.1347C73.8681 23.1347 74.0889 23.0736 74.2501 22.9528C74.4113 22.8319 74.5283 22.6735 74.5987 22.4775C74.6704 22.2815 74.7098 22.0714 74.7193 21.8473C74.7241 21.717 74.7241 21.5856 74.7193 21.4553C74.7098 21.2312 74.6692 21.0211 74.5987 20.8252C74.5271 20.6292 74.4113 20.4707 74.2501 20.3499C74.0889 20.229 73.8681 20.168 73.5887 20.168C73.3272 20.168 73.1135 20.229 72.9452 20.3499C72.7768 20.4707 72.6514 20.6233 72.5679 20.8052C72.4843 20.9871 72.4413 21.1713 72.4365 21.3579C72.4318 21.4284 72.4294 21.5187 72.4294 21.6302C72.4294 21.7417 72.4318 21.8332 72.4365 21.9036C72.4461 22.0949 72.4903 22.285 72.5679 22.474C72.6467 22.6629 72.7685 22.8202 72.9344 22.9457C73.1004 23.0713 73.3189 23.1347 73.5887 23.1347Z"
        fill="white" />
    <path
        d="M76.6139 24.7996C76.5757 24.7996 76.5422 24.7855 76.5148 24.7573C76.4873 24.7292 76.4718 24.6963 76.4718 24.6599C76.4718 24.6412 76.4754 24.6212 76.4825 24.6001C76.4897 24.579 76.5004 24.552 76.5148 24.5191L77.0628 23.2599L75.7029 20.1113C75.6742 20.0409 75.6599 19.9952 75.6599 19.9717C75.6599 19.9341 75.6742 19.9013 75.7029 19.8743C75.7315 19.8461 75.765 19.832 75.802 19.832H75.9512C75.999 19.832 76.036 19.8426 76.0611 19.8637C76.0861 19.8848 76.1052 19.9095 76.1148 19.9376L77.3111 22.7084L78.5349 19.9376C78.5492 19.9095 78.5683 19.8848 78.5922 19.8637C78.6161 19.8426 78.6519 19.832 78.6985 19.832H78.8405C78.8787 19.832 78.9122 19.8461 78.9396 19.8743C78.9683 19.9024 78.9826 19.9353 78.9826 19.9717C78.9826 19.9952 78.9683 20.0421 78.9396 20.1113L76.9183 24.694C76.904 24.7221 76.8849 24.7468 76.861 24.7679C76.8371 24.789 76.8013 24.7996 76.7547 24.7996H76.6127H76.6139Z"
        fill="white" />
    <path
        d="M81.6667 23.4706C81.6189 23.4706 81.5819 23.4565 81.5532 23.4283C81.5246 23.4002 81.5103 23.3626 81.5103 23.3169V18.7342C81.5103 18.6826 81.5246 18.6439 81.5532 18.6157C81.5819 18.5875 81.6201 18.5734 81.6667 18.5734H81.7944C81.8469 18.5734 81.8863 18.5875 81.915 18.6157C81.9436 18.6439 81.958 18.6838 81.958 18.7342V20.5532L84.1142 18.6779C84.1333 18.6638 84.1644 18.6427 84.2073 18.6145C84.2503 18.5863 84.3088 18.5723 84.3852 18.5723H84.4987C84.5369 18.5723 84.5703 18.5863 84.5978 18.6145C84.6264 18.6427 84.6407 18.6755 84.6407 18.7119C84.6407 18.7483 84.6288 18.78 84.6049 18.8023L82.192 20.9146L84.7542 23.23C84.7828 23.2582 84.7971 23.291 84.7971 23.3274C84.7971 23.3638 84.7828 23.3978 84.7542 23.4248C84.7255 23.453 84.6921 23.4671 84.6551 23.4671H84.5345C84.4581 23.4671 84.3996 23.453 84.3566 23.4248C84.3136 23.3967 84.2826 23.3755 84.2646 23.3615L81.9592 21.2902V23.3122C81.9592 23.3591 81.9448 23.3967 81.9162 23.4237C81.8875 23.4518 81.8469 23.4659 81.7956 23.4659H81.6678L81.6667 23.4706Z"
        fill="white" />
    <path
        d="M86.7054 23.5413C86.3639 23.5413 86.0774 23.4709 85.8481 23.3312C85.6177 23.1916 85.4422 23.0003 85.3216 22.7574C85.201 22.5144 85.1354 22.2445 85.1258 21.9453C85.121 21.8749 85.1187 21.7775 85.1187 21.6519C85.1187 21.5263 85.121 21.4277 85.1258 21.3585C85.1354 21.0557 85.201 20.7835 85.3216 20.5441C85.4422 20.3035 85.6177 20.1134 85.8481 19.9737C86.0786 19.8341 86.3639 19.7637 86.7054 19.7637C87.0468 19.7637 87.3334 19.8341 87.5626 19.9737C87.7931 20.1134 87.9686 20.3035 88.0891 20.5441C88.2097 20.7846 88.2754 21.0557 88.285 21.3585C88.2897 21.4289 88.2921 21.5263 88.2921 21.6519C88.2921 21.7775 88.2897 21.876 88.285 21.9453C88.2754 22.2433 88.2097 22.5144 88.0891 22.7574C87.9686 23.0003 87.7931 23.1916 87.5626 23.3312C87.3322 23.4709 87.0468 23.5413 86.7054 23.5413ZM86.7054 23.1352C87.0373 23.1352 87.3083 23.0308 87.5173 22.8207C87.7262 22.6107 87.8372 22.3079 87.8516 21.9112C87.8563 21.8408 87.8587 21.7552 87.8587 21.6519C87.8587 21.5486 87.8563 21.4629 87.8516 21.3925C87.8372 20.9912 87.7262 20.6872 87.5173 20.4795C87.3083 20.2718 87.0385 20.1685 86.7054 20.1685C86.3723 20.1685 86.1024 20.2718 85.8935 20.4795C85.6846 20.6872 85.5735 20.9912 85.5592 21.3925C85.5544 21.4629 85.552 21.5486 85.552 21.6519C85.552 21.7552 85.5544 21.8408 85.5592 21.9112C85.5735 22.3079 85.6846 22.6107 85.8935 22.8207C86.1024 23.0308 86.3723 23.1352 86.7054 23.1352Z"
        fill="white" />
    <path
        d="M89.4254 23.4709C89.3777 23.4709 89.3407 23.4568 89.312 23.4286C89.2834 23.4005 89.269 23.3629 89.269 23.3171V19.9866C89.269 19.9397 89.2834 19.9022 89.312 19.8752C89.3407 19.847 89.3789 19.8329 89.4254 19.8329H89.546C89.5938 19.8329 89.632 19.847 89.6595 19.8752C89.6881 19.9033 89.7024 19.9409 89.7024 19.9866V20.2319C89.8206 20.0829 89.9627 19.9667 90.1263 19.8857C90.2899 19.8047 90.488 19.7637 90.7209 19.7637C91.2522 19.7637 91.6318 19.9831 91.8599 20.4209C91.9685 20.2202 92.1297 20.0606 92.3398 19.942C92.5512 19.8235 92.7935 19.7637 93.0693 19.7637C93.3212 19.7637 93.5469 19.8212 93.7487 19.935C93.9504 20.0488 94.1092 20.2178 94.225 20.442C94.3409 20.6661 94.3994 20.9454 94.3994 21.2811V23.3171C94.3994 23.3641 94.385 23.4016 94.3564 23.4286C94.3277 23.4568 94.2895 23.4709 94.2429 23.4709H94.1224C94.0746 23.4709 94.0376 23.4568 94.0089 23.4286C93.9803 23.4005 93.966 23.3629 93.966 23.3171V21.3515C93.966 21.044 93.9206 20.8046 93.831 20.6344C93.7415 20.4643 93.6221 20.3446 93.4753 20.2742C93.3284 20.2037 93.1696 20.1697 92.9989 20.1697C92.8568 20.1697 92.7123 20.2049 92.5643 20.2742C92.4174 20.3446 92.2945 20.4643 92.1977 20.6344C92.0998 20.8046 92.0521 21.044 92.0521 21.3515V23.3171C92.0521 23.3641 92.0378 23.4016 92.0091 23.4286C91.9805 23.4568 91.9423 23.4709 91.8957 23.4709H91.7751C91.7273 23.4709 91.6891 23.4568 91.6617 23.4286C91.633 23.4005 91.6187 23.3629 91.6187 23.3171V21.3515C91.6187 21.044 91.5709 20.8046 91.4766 20.6344C91.3811 20.4643 91.2605 20.3446 91.1137 20.2742C90.9668 20.2037 90.8128 20.1697 90.6504 20.1697C90.5083 20.1697 90.3627 20.2049 90.2158 20.2742C90.069 20.3446 89.946 20.4643 89.8493 20.6344C89.7514 20.8046 89.7036 21.0416 89.7036 21.3444V23.3171C89.7036 23.3641 89.6893 23.4016 89.6606 23.4286C89.632 23.4568 89.5938 23.4709 89.5472 23.4709H89.4266H89.4254Z"
        fill="white" />
    <path
        d="M96.8907 23.5413C96.4298 23.5413 96.0645 23.3934 95.7946 23.0965C95.5248 22.8008 95.3696 22.4123 95.3314 21.9312C95.3266 21.8608 95.3242 21.7681 95.3242 21.6519C95.3242 21.5357 95.3266 21.4418 95.3314 21.3726C95.3553 21.0557 95.4305 20.7753 95.5594 20.5335C95.6872 20.2906 95.8639 20.1017 96.0895 19.9667C96.3152 19.8317 96.5814 19.7637 96.8907 19.7637C97.2226 19.7637 97.5055 19.8364 97.7372 19.9808C97.97 20.1251 98.1491 20.3328 98.2744 20.6039C98.3998 20.875 98.4631 21.1966 98.4631 21.5697V21.6742C98.4631 21.7211 98.4475 21.7587 98.4165 21.7857C98.3855 21.8138 98.3461 21.8279 98.2995 21.8279H95.766V21.8983C95.7755 22.1084 95.8257 22.3079 95.9152 22.4968C96.0048 22.6858 96.1337 22.8395 96.2997 22.958C96.4656 23.0766 96.6626 23.1364 96.8907 23.1364C97.0948 23.1364 97.2644 23.1059 97.3993 23.046C97.5342 22.985 97.6428 22.9193 97.7228 22.8465C97.804 22.7738 97.8554 22.7198 97.8792 22.6823C97.9222 22.6212 97.9544 22.586 97.9783 22.5743C98.0022 22.5626 98.0404 22.5567 98.0917 22.5567H98.2052C98.2482 22.5567 98.2852 22.5696 98.315 22.5954C98.3461 22.6212 98.3592 22.6553 98.3544 22.6963C98.3496 22.7621 98.3126 22.8419 98.2446 22.9381C98.1753 23.0343 98.0786 23.1282 97.9533 23.2209C97.8279 23.3148 97.6751 23.3911 97.4948 23.4521C97.3145 23.5131 97.1127 23.5425 96.8895 23.5425L96.8907 23.5413ZM95.766 21.436H98.0297V21.4078C98.0297 21.1743 97.9843 20.9654 97.8948 20.7776C97.8052 20.591 97.6739 20.4431 97.5031 20.3328C97.3324 20.2237 97.1282 20.1685 96.8907 20.1685C96.6531 20.1685 96.4501 20.2237 96.2818 20.3328C96.1134 20.442 95.9857 20.591 95.8973 20.7776C95.809 20.9642 95.766 21.1743 95.766 21.4078V21.436Z"
        fill="white" />
    <path
        d="M99.5609 23.47C99.5132 23.47 99.4762 23.4559 99.4475 23.4277C99.4189 23.3996 99.4045 23.362 99.4045 23.3163V19.9928C99.4045 19.9459 99.4189 19.9083 99.4475 19.8778C99.4762 19.8473 99.5144 19.832 99.5609 19.832H99.6744C99.7221 19.832 99.7603 19.8473 99.7914 19.8778C99.8224 19.9083 99.8379 19.947 99.8379 19.9928V20.3144C99.9239 20.1512 100.047 20.0304 100.208 19.9506C100.369 19.8708 100.569 19.832 100.806 19.832H101.07C101.118 19.832 101.155 19.8461 101.183 19.8743C101.212 19.9024 101.226 19.94 101.226 19.9858V20.0832C101.226 20.1301 101.212 20.1677 101.183 20.1947C101.155 20.2228 101.117 20.2369 101.07 20.2369H100.764C100.48 20.2369 100.255 20.319 100.089 20.4822C99.9227 20.6453 99.8391 20.8671 99.8391 21.1464V23.3151C99.8391 23.362 99.8236 23.3996 99.7926 23.4266C99.7615 23.4547 99.7221 23.4688 99.6756 23.4688H99.5621L99.5609 23.47Z"
        fill="white" />
    <path
        d="M103.197 23.5401C102.865 23.5401 102.582 23.4756 102.35 23.3476C102.117 23.2197 101.941 23.0343 101.82 22.7914C101.7 22.5485 101.634 22.2621 101.624 21.9312C101.62 21.8608 101.617 21.7681 101.617 21.6519C101.617 21.5357 101.62 21.4418 101.624 21.3726C101.634 21.037 101.7 20.7494 101.82 20.5089C101.941 20.2683 102.117 20.084 102.35 19.9561C102.583 19.8282 102.865 19.7637 103.197 19.7637C103.449 19.7637 103.665 19.7977 103.849 19.8646C104.031 19.9327 104.182 20.0207 104.301 20.131C104.419 20.2401 104.51 20.361 104.571 20.4913C104.633 20.6215 104.665 20.7506 104.67 20.8762C104.675 20.9231 104.661 20.9607 104.627 20.9877C104.594 21.0158 104.555 21.0299 104.514 21.0299H104.415C104.367 21.0299 104.332 21.0194 104.311 20.9982C104.289 20.9771 104.267 20.9384 104.243 20.8832C104.144 20.6168 104.006 20.4314 103.833 20.327C103.66 20.2225 103.447 20.1697 103.197 20.1697C102.874 20.1697 102.607 20.2671 102.396 20.4596C102.184 20.6532 102.072 20.9689 102.058 21.4078C102.048 21.5709 102.048 21.734 102.058 21.8972C102.072 22.3361 102.184 22.6517 102.396 22.8454C102.607 23.039 102.873 23.1352 103.197 23.1352C103.449 23.1352 103.66 23.0824 103.833 22.978C104.006 22.8735 104.142 22.6881 104.243 22.4217C104.267 22.3654 104.289 22.3278 104.311 22.3067C104.332 22.2856 104.367 22.275 104.415 22.275H104.514C104.557 22.275 104.595 22.2891 104.627 22.3173C104.661 22.3454 104.675 22.383 104.67 22.4288C104.665 22.5309 104.644 22.6341 104.606 22.7362C104.567 22.8383 104.51 22.9393 104.431 23.0367C104.352 23.1341 104.257 23.2209 104.144 23.296C104.03 23.3711 103.893 23.4298 103.734 23.4744C103.575 23.519 103.396 23.5413 103.197 23.5413V23.5401Z"
        fill="white" />
    <path
        d="M106.983 23.5413C106.523 23.5413 106.157 23.3934 105.887 23.0965C105.618 22.8008 105.462 22.4123 105.424 21.9312C105.419 21.8608 105.417 21.7681 105.417 21.6519C105.417 21.5357 105.419 21.4418 105.424 21.3726C105.448 21.0557 105.523 20.7753 105.652 20.5335C105.78 20.2906 105.957 20.1017 106.182 19.9667C106.408 19.8317 106.674 19.7637 106.983 19.7637C107.315 19.7637 107.598 19.8364 107.83 19.9808C108.063 20.1251 108.242 20.3328 108.367 20.6039C108.493 20.875 108.556 21.1966 108.556 21.5697V21.6742C108.556 21.7211 108.54 21.7587 108.509 21.7857C108.478 21.8138 108.439 21.8279 108.392 21.8279H105.859V21.8983C105.868 22.1084 105.918 22.3079 106.008 22.4968C106.098 22.6858 106.226 22.8395 106.392 22.958C106.558 23.0766 106.755 23.1364 106.983 23.1364C107.188 23.1364 107.357 23.1059 107.492 23.046C107.627 22.985 107.736 22.9193 107.816 22.8465C107.897 22.7738 107.948 22.7198 107.972 22.6823C108.015 22.6212 108.047 22.586 108.071 22.5743C108.095 22.5626 108.133 22.5567 108.185 22.5567H108.298C108.341 22.5567 108.378 22.5696 108.408 22.5954C108.439 22.6212 108.452 22.6553 108.447 22.6963C108.442 22.7621 108.405 22.8419 108.337 22.9381C108.268 23.0343 108.171 23.1282 108.046 23.2209C107.921 23.3148 107.768 23.3911 107.588 23.4521C107.407 23.5131 107.205 23.5425 106.982 23.5425L106.983 23.5413ZM105.859 21.436H108.122V21.4078C108.122 21.1743 108.077 20.9654 107.988 20.7776C107.898 20.591 107.767 20.4431 107.596 20.3328C107.425 20.2237 107.221 20.1685 106.983 20.1685C106.746 20.1685 106.543 20.2237 106.375 20.3328C106.206 20.442 106.078 20.591 105.99 20.7776C105.902 20.9642 105.859 21.1743 105.859 21.4078V21.436Z"
        fill="white" />
    <path
        d="M22.2271 21.1874C21.9537 21.1874 21.6803 21.1135 21.4403 20.9668L16.2169 17.7748H1.99122C1.16741 17.7748 0.5 17.1188 0.5 16.309V2.26652C0.5 1.45679 1.16741 0.800781 1.99122 0.800781H17.7487C18.5725 0.800781 19.2399 1.45679 19.2399 2.26652C19.2399 3.07626 18.5725 3.73227 17.7487 3.73227H3.48124V14.8456H16.6419C16.9201 14.8456 17.1923 14.9219 17.4287 15.0663L20.7359 17.0871V10.263C20.7359 9.45324 21.4033 8.79724 22.2271 8.79724C23.0509 8.79724 23.7183 9.45324 23.7183 10.263V19.724C23.7183 20.2556 23.4246 20.7462 22.9518 21.0043C22.7262 21.1276 22.4767 21.1886 22.2283 21.1886L22.2271 21.1874Z"
        fill="white" />
    <path
        d="M22.2273 21.1874C21.9539 21.1874 21.6805 21.1135 21.4405 20.9668L16.2171 17.7748H12.7249C11.901 17.7748 11.2336 17.1188 11.2336 16.3091C11.2336 15.4993 11.901 14.8433 12.7249 14.8433H16.6433C16.9215 14.8433 17.1937 14.9196 17.4301 15.0639L20.7373 17.0848V10.2607C20.7373 9.45093 21.4047 8.79492 22.2285 8.79492C23.0524 8.79492 23.7198 9.45093 23.7198 10.2607V19.7217C23.7198 20.2533 23.4261 20.7438 22.9533 21.002C22.7276 21.1252 22.4781 21.1863 22.2297 21.1863L22.2273 21.1874Z"
        fill="white" />
    <path
        d="M22.1869 7.63279C22.9584 7.63279 23.5838 7.01806 23.5838 6.25975C23.5838 5.50145 22.9584 4.88672 22.1869 4.88672C21.4155 4.88672 20.79 5.50145 20.79 6.25975C20.79 7.01806 21.4155 7.63279 22.1869 7.63279Z"
        fill="white" />
    <path
        d="M22.1869 3.61326C22.9584 3.61326 23.5838 2.99853 23.5838 2.24022C23.5838 1.48192 22.9584 0.867188 22.1869 0.867188C21.4155 0.867188 20.79 1.48192 20.79 2.24022C20.79 2.99853 21.4155 3.61326 22.1869 3.61326Z"
        fill="white" />
    <path
        d="M30.1421 16.2175C30.0215 16.2175 29.9177 16.1764 29.8341 16.0931C29.7493 16.0098 29.7075 15.9089 29.7075 15.7903V3.99162C29.7075 3.87309 29.7493 3.77217 29.8341 3.68885C29.9188 3.60553 30.0215 3.56445 30.1421 3.56445H31.6106C31.7432 3.56445 31.8494 3.6067 31.9282 3.68885C32.007 3.77217 32.0464 3.87309 32.0464 3.99162V10.087L35.0921 7.25287C35.2008 7.15781 35.2975 7.08388 35.3823 7.0299C35.467 6.97591 35.5936 6.9501 35.7631 6.9501H37.449C37.5695 6.9501 37.6663 6.9853 37.7391 7.05689C37.8119 7.12847 37.8477 7.22353 37.8477 7.34206C37.8477 7.39017 37.8358 7.44298 37.8119 7.50283C37.788 7.56268 37.7391 7.61549 37.6663 7.66361L33.9304 11.1032L38.1188 15.5228C38.2393 15.6413 38.3002 15.7422 38.3002 15.8255C38.3002 15.9441 38.2608 16.0391 38.182 16.1107C38.1032 16.1823 38.0101 16.2175 37.9015 16.2175H36.1786C35.9971 16.2175 35.867 16.1905 35.7882 16.1377C35.7094 16.0837 35.6163 16.0098 35.5076 15.9147L32.044 12.3319V15.7892C32.044 15.9077 32.0046 16.0098 31.9258 16.0919C31.847 16.1752 31.742 16.2163 31.6083 16.2163H30.1397L30.1421 16.2175Z"
        fill="white" />
    <path
        d="M43.3957 16.3964C42.4287 16.3964 41.6156 16.2298 40.9565 15.8977C40.2975 15.5656 39.796 15.0961 39.4522 14.4894C39.1071 13.8839 38.9113 13.1762 38.8624 12.3688C38.8505 12.1553 38.8445 11.8936 38.8445 11.5849C38.8445 11.2763 38.8505 11.0146 38.8624 10.801C38.9101 9.9807 39.1131 9.27189 39.4701 8.67104C39.8271 8.07137 40.3345 7.6043 40.9936 7.27219C41.6526 6.94008 42.4537 6.77344 43.3957 6.77344C44.3378 6.77344 45.1389 6.94008 45.7979 7.27219C46.457 7.60547 46.9644 8.07137 47.3214 8.67104C47.6784 9.27072 47.8801 9.9807 47.9291 10.801C47.941 11.0146 47.947 11.2763 47.947 11.5849C47.947 11.8936 47.941 12.1553 47.9291 12.3688C47.8801 13.1774 47.6843 13.8839 47.3393 14.4894C46.9942 15.095 46.4928 15.5644 45.8349 15.8977C45.1759 16.2298 44.3628 16.3964 43.3957 16.3964ZM43.3957 14.6314C44.0369 14.6314 44.5324 14.4331 44.8822 14.0341C45.2332 13.6363 45.4266 13.0507 45.4624 12.2785C45.4744 12.1001 45.4803 11.8689 45.4803 11.5838C45.4803 11.2986 45.4744 11.0674 45.4624 10.889C45.4266 10.1286 45.2332 9.5465 44.8822 9.1428C44.5312 8.73911 44.0357 8.53726 43.3957 8.53726C42.7558 8.53726 42.2591 8.73911 41.9093 9.1428C41.5583 9.5465 41.3649 10.1297 41.329 10.889C41.3171 11.0674 41.3111 11.2986 41.3111 11.5838C41.3111 11.8689 41.3171 12.1001 41.329 12.2785C41.3649 13.0507 41.5583 13.6363 41.9093 14.0341C42.2603 14.4319 42.7558 14.6314 43.3957 14.6314Z"
        fill="white" />
    <path
        d="M50.3948 16.218C50.2742 16.218 50.1703 16.1769 50.0868 16.0936C50.002 16.0103 49.9602 15.9094 49.9602 15.7908V7.37778C49.9602 7.25925 50.002 7.15833 50.0868 7.07501C50.1715 6.99168 50.2742 6.95061 50.3948 6.95061H51.8096C51.9302 6.95061 52.0329 6.99286 52.1176 7.07501C52.2024 7.15833 52.2442 7.25925 52.2442 7.37778V7.98332C52.4985 7.65121 52.84 7.36839 53.2686 7.1372C53.6972 6.90602 54.2082 6.78397 54.8004 6.77223C56.1782 6.74876 57.1393 7.27685 57.6837 8.35885C57.9619 7.88357 58.3643 7.501 58.8896 7.20879C59.4149 6.91775 59.9988 6.77223 60.6399 6.77223C61.281 6.77223 61.8398 6.91423 62.3532 7.20057C62.8666 7.48574 63.2713 7.91643 63.5674 8.49263C63.8635 9.06884 64.0116 9.79643 64.0116 10.6754V15.7908C64.0116 15.9094 63.9686 16.0115 63.885 16.0936C63.8002 16.1769 63.6976 16.218 63.577 16.218H62.0905C61.9699 16.218 61.8661 16.1769 61.7825 16.0936C61.6977 16.0103 61.6559 15.9094 61.6559 15.7908V10.8186C61.6559 10.2834 61.5771 9.8598 61.4207 9.54412C61.2631 9.22961 61.0518 9.00664 60.7856 8.87521C60.5193 8.74494 60.2232 8.67923 59.8973 8.67923C59.631 8.67923 59.3648 8.74494 59.0997 8.87521C58.8335 9.00664 58.6162 9.22844 58.4467 9.54412C58.2771 9.85863 58.1923 10.2834 58.1923 10.8186V15.7908C58.1923 15.9094 58.1494 16.0115 58.0658 16.0936C57.981 16.1769 57.8783 16.218 57.7578 16.218H56.2713C56.1376 16.218 56.0325 16.1769 55.9537 16.0936C55.8749 16.0103 55.8355 15.9094 55.8355 15.7908V10.8186C55.8355 10.2834 55.7508 9.8598 55.5812 9.54412C55.4117 9.22961 55.1944 9.00664 54.9281 8.87521C54.6619 8.74494 54.3777 8.67923 54.0757 8.67923C53.7975 8.67923 53.5253 8.74729 53.2602 8.88459C52.994 9.0219 52.7767 9.24369 52.6071 9.55351C52.4376 9.86215 52.3528 10.2846 52.3528 10.8186V15.7908C52.3528 15.9094 52.3099 16.0115 52.2263 16.0936C52.1427 16.1758 52.0388 16.218 51.9182 16.218H50.3948Z"
        fill="white" />
    <path
        d="M70.3953 16.3956C69.525 16.3956 68.7608 16.2349 68.1018 15.9145C67.4427 15.5941 66.9294 15.127 66.5604 14.5156C66.1915 13.9042 65.9897 13.1637 65.9527 12.2965C65.9408 12.1181 65.9348 11.8834 65.9348 11.5924C65.9348 11.3013 65.9408 11.0607 65.9527 10.8706C65.9885 10.0034 66.1915 9.26407 66.5604 8.65148C66.9294 8.04007 67.4427 7.57301 68.1018 7.25263C68.7608 6.93226 69.525 6.77148 70.3953 6.77148C71.169 6.77148 71.828 6.87828 72.3713 7.09186C72.9157 7.30544 73.3622 7.57301 73.7133 7.89338C74.0643 8.21376 74.3269 8.55056 74.5025 8.90027C74.678 9.25116 74.7711 9.56919 74.783 9.85318C74.795 9.98462 74.7556 10.0879 74.6648 10.1653C74.5741 10.2428 74.4678 10.2815 74.3472 10.2815H72.7521C72.6316 10.2815 72.5372 10.2522 72.4716 10.1923C72.4047 10.1325 72.3414 10.0433 72.2817 9.92477C72.1003 9.44949 71.8615 9.11386 71.5654 8.91788C71.2693 8.7219 70.8908 8.62332 70.4323 8.62332C69.8282 8.62332 69.3471 8.80991 68.9913 9.18427C68.6343 9.55863 68.4445 10.1501 68.4206 10.9575C68.3967 11.4093 68.3967 11.8247 68.4206 12.2049C68.4445 13.0252 68.6355 13.6191 68.9913 13.9875C69.3483 14.356 69.8282 14.5403 70.4323 14.5403C70.9039 14.5403 71.2848 14.4417 71.5749 14.2457C71.8651 14.0497 72.1003 13.7141 72.2817 13.2388C72.3426 13.1203 72.4059 13.0311 72.4716 12.9713C72.5384 12.9114 72.6316 12.8821 72.7521 12.8821H74.3472C74.4678 12.8821 74.5741 12.9208 74.6648 12.9983C74.7556 13.0757 74.795 13.179 74.783 13.3104C74.7711 13.524 74.7138 13.7646 74.6111 14.0321C74.5084 14.2997 74.3449 14.5731 74.1216 14.8524C73.8983 15.1317 73.6166 15.3876 73.2787 15.6188C72.9396 15.8499 72.5325 16.0377 72.0549 16.1797C71.5773 16.3217 71.0245 16.3933 70.3953 16.3933V16.3956Z"
        fill="white" />
    <path
        d="M77.1223 16.2175C77.0017 16.2175 76.8979 16.1764 76.8143 16.0931C76.7295 16.0098 76.6877 15.9089 76.6877 15.7903V3.99162C76.6877 3.87309 76.7295 3.77217 76.8143 3.68885C76.8991 3.60553 77.0017 3.56445 77.1223 3.56445H78.6279C78.7485 3.56445 78.8511 3.6067 78.9359 3.68885C79.0207 3.77217 79.0625 3.87309 79.0625 3.99162V15.7903C79.0625 15.9089 79.0195 16.0109 78.9359 16.0931C78.8511 16.1764 78.7485 16.2175 78.6279 16.2175H77.1223Z"
        fill="white" />
    <path
        d="M84.2121 16.3964C83.5829 16.3964 83.0158 16.2744 82.5072 16.0314C81.9998 15.7885 81.5974 15.4611 81.3013 15.0515C81.0052 14.642 80.8572 14.1808 80.8572 13.6703C80.8572 12.8383 81.1986 12.1764 81.8816 11.6835C82.5645 11.1906 83.4683 10.8609 84.593 10.6942L87.0776 10.3375V9.9631C87.0776 9.46435 86.951 9.07826 86.6967 8.80482C86.4424 8.53139 86.0078 8.39526 85.3917 8.39526C84.9571 8.39526 84.6025 8.4821 84.3315 8.65344C84.0593 8.82595 83.8575 9.05479 83.7238 9.33995C83.6271 9.49486 83.4886 9.57114 83.3071 9.57114H81.8744C81.7407 9.57114 81.6416 9.53593 81.5747 9.46435C81.5079 9.39276 81.4756 9.29771 81.4756 9.17918C81.4876 8.98907 81.5664 8.75788 81.7108 8.48445C81.8553 8.21102 82.0857 7.94697 82.3997 7.69114C82.7137 7.43531 83.1185 7.21938 83.6152 7.041C84.1106 6.86263 84.7088 6.77344 85.4108 6.77344C86.1726 6.77344 86.8161 6.86615 87.3414 7.04922C87.8667 7.23346 88.287 7.4799 88.601 7.78854C88.915 8.09718 89.1454 8.4598 89.2899 8.87524C89.4344 9.29184 89.5072 9.73074 89.5072 10.1943V15.7909C89.5072 15.9094 89.4642 16.0115 89.3806 16.0936C89.2959 16.177 89.1932 16.218 89.0726 16.218H87.6041C87.4704 16.218 87.3653 16.177 87.2865 16.0936C87.2077 16.0103 87.1683 15.9094 87.1683 15.7909V15.0961C87.0107 15.3215 86.7994 15.5327 86.5331 15.7287C86.2669 15.9247 85.9433 16.0854 85.5636 16.2098C85.1828 16.3342 84.7327 16.3964 84.2133 16.3964H84.2121ZM84.8282 14.703C85.2508 14.703 85.6353 14.6138 85.9791 14.4354C86.323 14.2571 86.5952 13.9813 86.7946 13.6069C86.994 13.2326 87.0943 12.7608 87.0943 12.1905V11.8161L85.2807 12.1013C84.5679 12.2081 84.0354 12.3806 83.6856 12.6176C83.3346 12.8559 83.1603 13.1469 83.1603 13.4907C83.1603 13.7524 83.2415 13.9754 83.405 14.1597C83.5686 14.3439 83.7763 14.48 84.0306 14.5692C84.285 14.6584 84.55 14.703 84.8282 14.703Z"
        fill="white" />
    <path
        d="M95.4002 16.3949C94.6754 16.3949 94.0558 16.3115 93.5412 16.1449C93.0278 15.9782 92.6076 15.7705 92.2816 15.5206C91.9557 15.2706 91.7133 15.0218 91.5557 14.7719C91.3981 14.5219 91.3133 14.3142 91.3014 14.1475C91.2895 14.0173 91.3289 13.9128 91.4196 13.8354C91.5103 13.7579 91.6094 13.7192 91.7193 13.7192H93.152C93.1997 13.7192 93.2427 13.7251 93.2785 13.7368C93.3144 13.7485 93.3633 13.7849 93.423 13.8436C93.5806 13.975 93.7466 14.1112 93.9221 14.2532C94.0976 14.3952 94.3053 14.5172 94.5477 14.6181C94.7889 14.719 95.0921 14.7695 95.4539 14.7695C95.9255 14.7695 96.3207 14.678 96.6418 14.4937C96.9618 14.3095 97.1218 14.0454 97.1218 13.7004C97.1218 13.4505 97.0526 13.2486 96.9129 13.0949C96.7732 12.9411 96.5165 12.8003 96.1428 12.6759C95.7679 12.5515 95.2366 12.4177 94.5465 12.2746C93.8695 12.1208 93.3072 11.9249 92.8607 11.6866C92.4129 11.4496 92.081 11.1515 91.8637 10.7959C91.6464 10.4392 91.5378 10.0237 91.5378 9.54846C91.5378 9.07318 91.6799 8.64249 91.964 8.22119C92.2482 7.79989 92.6708 7.45253 93.2332 7.17909C93.7955 6.90566 94.494 6.76953 95.3273 6.76953C95.9804 6.76953 96.5487 6.84933 97.0323 7.01011C97.5158 7.17088 97.9182 7.36921 98.2381 7.60743C98.5581 7.84566 98.8029 8.08624 98.9724 8.32916C99.1419 8.57325 99.2327 8.78331 99.2446 8.96169C99.2565 9.09313 99.2207 9.1964 99.136 9.27385C99.0512 9.35131 98.9545 9.39003 98.8458 9.39003H97.5039C97.443 9.39003 97.3892 9.3783 97.3403 9.35483C97.2913 9.33135 97.2436 9.30084 97.1946 9.26564C97.0609 9.14711 96.9164 9.02272 96.76 8.89128C96.6024 8.76102 96.4126 8.64484 96.1893 8.54391C95.9661 8.44299 95.6724 8.39253 95.3094 8.39253C94.8498 8.39253 94.4999 8.48993 94.2576 8.68709C94.0152 8.88307 93.8946 9.12951 93.8946 9.42641C93.8946 9.62826 93.9519 9.80429 94.0665 9.95215C94.1812 10.1012 94.414 10.2408 94.765 10.3711C95.116 10.5025 95.6473 10.6387 96.3613 10.7807C97.1707 10.9227 97.8143 11.1339 98.2919 11.4132C98.7694 11.6925 99.1073 12.0129 99.3067 12.3755C99.5061 12.7381 99.6064 13.1395 99.6064 13.5784C99.6064 14.1135 99.4464 14.5947 99.1264 15.0218C98.8064 15.4502 98.3348 15.7858 97.7116 16.0287C97.0884 16.2716 96.3183 16.3937 95.4002 16.3937V16.3949Z"
        fill="white" />
    <path
        d="M105.046 16.3949C104.321 16.3949 103.702 16.3115 103.187 16.1449C102.674 15.9782 102.253 15.7705 101.927 15.5206C101.601 15.2706 101.359 15.0218 101.201 14.7719C101.044 14.5219 100.959 14.3142 100.947 14.1475C100.935 14.0173 100.975 13.9128 101.065 13.8354C101.156 13.7579 101.255 13.7192 101.365 13.7192H102.798C102.845 13.7192 102.888 13.7251 102.924 13.7368C102.96 13.7485 103.009 13.7849 103.069 13.8436C103.226 13.975 103.392 14.1112 103.568 14.2532C103.743 14.3952 103.951 14.5172 104.193 14.6181C104.435 14.719 104.738 14.7695 105.1 14.7695C105.571 14.7695 105.966 14.678 106.288 14.4937C106.608 14.3095 106.768 14.0454 106.768 13.7004C106.768 13.4505 106.698 13.2486 106.559 13.0949C106.419 12.9411 106.162 12.8003 105.789 12.6759C105.414 12.5515 104.882 12.4177 104.192 12.2746C103.515 12.1208 102.953 11.9249 102.506 11.6866C102.059 11.4496 101.727 11.1515 101.509 10.7959C101.292 10.4392 101.184 10.0237 101.184 9.54846C101.184 9.07318 101.326 8.64249 101.61 8.22119C101.894 7.79989 102.317 7.45253 102.879 7.17909C103.441 6.90566 104.14 6.76953 104.973 6.76953C105.626 6.76953 106.194 6.84933 106.678 7.01011C107.162 7.17088 107.564 7.36921 107.884 7.60743C108.204 7.84566 108.449 8.08624 108.618 8.32916C108.788 8.57325 108.878 8.78331 108.89 8.96169C108.902 9.09313 108.866 9.1964 108.782 9.27385C108.697 9.35131 108.6 9.39003 108.492 9.39003H107.15C107.089 9.39003 107.035 9.3783 106.986 9.35483C106.937 9.33135 106.889 9.30084 106.84 9.26564C106.707 9.14711 106.562 9.02272 106.406 8.89128C106.248 8.76102 106.058 8.64484 105.835 8.54391C105.612 8.44299 105.318 8.39253 104.955 8.39253C104.496 8.39253 104.146 8.48993 103.903 8.68709C103.661 8.88307 103.54 9.12951 103.54 9.42641C103.54 9.62826 103.598 9.80429 103.712 9.95215C103.827 10.1012 104.06 10.2408 104.411 10.3711C104.762 10.5025 105.293 10.6387 106.007 10.7807C106.817 10.9227 107.46 11.1339 107.938 11.4132C108.415 11.6925 108.753 12.0129 108.952 12.3755C109.152 12.7381 109.252 13.1395 109.252 13.5784C109.252 14.1135 109.092 14.5947 108.772 15.0218C108.452 15.4502 107.981 15.7858 107.357 16.0287C106.734 16.2716 105.964 16.3937 105.046 16.3937V16.3949Z"
        fill="white" />
</svg>