<svg width="24" height="23" viewBox="0 0 24 23" fill="none" xmlns="http://www.w3.org/2000/svg">
    <path
        d="M23.3694 22.4999V22.499H23.375V14.2471C23.375 10.2103 22.506 7.10059 17.7866 7.10059C15.5179 7.10059 13.9954 8.34558 13.3738 9.5259H13.3082V7.47746H8.8335V22.499H13.4929V15.0609C13.4929 13.1025 13.8641 11.2087 16.2894 11.2087C18.6791 11.2087 18.7147 13.4437 18.7147 15.1865V22.4999H23.3694Z"
        fill="white" />
    <path d="M1.24609 7.47852H5.91109V22.5001H1.24609V7.47852Z" fill="white" />
    <path
        d="M3.57687 0C2.08531 0 0.875 1.21031 0.875 2.70187C0.875 4.19343 2.08531 5.42906 3.57687 5.42906C5.06843 5.42906 6.27874 4.19343 6.27874 2.70187C6.27781 1.21031 5.0675 0 3.57687 0V0Z"
        fill="white" />
</svg>