<svg width="33" height="23" viewBox="0 0 33 23" fill="none" xmlns="http://www.w3.org/2000/svg">
    <path
        d="M31.8556 3.52071C31.4852 2.14401 30.3995 1.05876 29.0227 0.688059C26.5074 0 16.4461 0 16.4461 0C16.4461 0 6.38512 0 3.86984 0.661972C2.5195 1.03228 1.40732 2.1442 1.03693 3.52071C0.375 6.03523 0.375 11.25 0.375 11.25C0.375 11.25 0.375 16.4911 1.03693 18.9793C1.40772 20.3558 2.49301 21.441 3.87003 21.8117C6.41161 22.5 16.4465 22.5 16.4465 22.5C16.4465 22.5 26.5074 22.5 29.0227 21.838C30.3997 21.4675 31.4852 20.3823 31.856 19.0058C32.5177 16.4911 32.5177 11.2765 32.5177 11.2765C32.5177 11.2765 32.5442 6.03523 31.8556 3.52071ZM13.2428 16.0676V6.43241L21.6093 11.25L13.2428 16.0676Z"
        fill="white" />
</svg>